<?xml version="1.0" encoding="utf-8"?>
<!-- Generator: Adobe Illustrator 19.1.0, SVG Export Plug-In . SVG Version: 6.00 Build 0)  -->
<svg version="1.1" id="Layer_1" xmlns="http://www.w3.org/2000/svg" xmlns:xlink="http://www.w3.org/1999/xlink" x="0px" y="0px"
	 viewBox="0 0 300 300" style="enable-background:new 0 0 300 300;" xml:space="preserve">
<style type="text/css">
	.st0{clip-path:url(#SVGID_2_);}
	.st1{fill:#FFFFFF;}
</style>
<symbol  id="Logo_White_Inverse" viewBox="-150 -150 300 300">
	<g>
		<defs>
			<polygon id="SVGID_1_" points="150,-150 -150,-150 -150,150 150,150 			"/>
		</defs>
		<clipPath id="SVGID_2_">
			<use xlink:href="#SVGID_1_"  style="overflow:visible;"/>
		</clipPath>
		<g class="st0">
			<g id="Logo_Light_2_">
				<g id="Logo_2_">
					<path class="st1" d="M0,91.7c-50.6,0-91.7-41-91.7-91.7s41-91.7,91.7-91.7S91.7-50.6,91.7,0S50.6,91.7,0,91.7z M0-83.3
						C-46-83.3-83.3-46-83.3,0S-46,83.3,0,83.3S83.3,46,83.3,0S46-83.3,0-83.3z"/>
					<path class="st1" d="M40.7-37l-4.7-4.7c-2-2-5.1-2-7.1,0L9.4-22.2c-2,2-2,5.1,0,7.1l4.7,4.7c1.9,1.9,5.1,1.9,7.1,0l19.5-19.5
						C42.6-31.9,42.6-35,40.7-37z"/>
					<path class="st1" d="M-11.2,29c-2-2-2-5.1,0-7.1l1.8-1.8c2-2,2-5.1,0-7.1l-4.7-4.7c-1.9-2-5.1-2-7.1,0l-1.8,1.8
						c-2,2-5.1,2-7.1,0l-4.7-4.7c-1.9-2-5.1-2-7.1,0l-10.6,10.6c-2,2-2,5.1,0,7.1l18.6,18.5c0.9,0.9,2.2,1.4,3.5,1.4h19.4
						c1.3,0,2.6-0.5,3.5-1.4l0.9-0.8c1.9-2,1.9-5.1,0-7.1L-11.2,29z"/>
					<path class="st1" d="M52.4,16.1L41.8,5.5c-2-2-5.1-2-7.1,0L30,10.2c-2,2-5.1,2-7.1,0l-51.8-51.9c-2-2-5.1-2-7.1,0l-4.7,4.7
						c-2,1.9-2,5.1,0,7.1L11.2,22c2,2,2,5.1,0,7.1l-4.7,4.7c-1.9,2-1.9,5.1,0,7.1l0.9,0.8c1,0.9,2.2,1.4,3.5,1.4h19.4
						c1.3,0,2.6-0.5,3.5-1.4l18.6-18.5C54.4,21.1,54.4,18,52.4,16.1z"/>
				</g>
			</g>
		</g>
	</g>
</symbol>
<use xlink:href="#Logo_White_Inverse"  width="300" height="300" x="-150" y="-150" transform="matrix(1 0 0 -1 150 150)" style="overflow:visible;"/>
</svg>
